HIERARCHY
ROOT Hips
{
	OFFSET -0.148888 88.448799 3.733362
	CHANNELS 6 Xposition Yposition Zposition Zrotation Yrotation Xrotation 
	JOINT Spine
	{
		OFFSET 0.000000 8.814246 -2.080107
		CHANNELS 3 Zrotation Yrotation Xrotation
		JOINT Spine1
		{
			OFFSET 0.000000 8.844141 0.000000
			CHANNELS 3 Zrotation Yrotation Xrotation
			JOINT Spine2
			{
				OFFSET -0.000000 11.682268 -0.000000
				CHANNELS 3 Zrotation Yrotation Xrotation
				JOINT Spine3
				{
					OFFSET -0.000000 11.746700 -0.000000
					CHANNELS 3 Zrotation Yrotation Xrotation
					JOINT Neck
					{
						OFFSET 0.000000 17.658264 -0.000000
						CHANNELS 3 Zrotation Yrotation Xrotation
						JOINT Neck1
						{
							OFFSET 0.000000 5.101515 0.000000
							CHANNELS 3 Zrotation Yrotation Xrotation
							JOINT Head
							{
								OFFSET -0.000000 5.101515 -0.000000
								CHANNELS 3 Zrotation Yrotation Xrotation
								JOINT HeadEnd
								{
									OFFSET 0.000000 11.655085 -0.000000
									CHANNELS 3 Zrotation Yrotation Xrotation
									End Site
									{
										OFFSET 0.000000 0.000000 0.000000
									}
								}
							}
						}
					}
					JOINT RightShoulder
					{
						OFFSET -2.625389 11.175210 -0.000000
						CHANNELS 3 Zrotation Yrotation Xrotation
						JOINT RightArm
						{
							OFFSET -0.000000 10.434715 0.000000
							CHANNELS 3 Zrotation Yrotation Xrotation
							JOINT RightForeArm
							{
								OFFSET 0.000000 29.628420 0.000000
								CHANNELS 3 Zrotation Yrotation Xrotation
								JOINT RightHand
								{
									OFFSET 0.000000 22.857611 0.000000
									CHANNELS 3 Zrotation Yrotation Xrotation
									JOINT RightHandThumb1
									{
										OFFSET -2.867323 3.959563 2.944291
										CHANNELS 3 Zrotation Yrotation Xrotation
										JOINT RightHandThumb2
										{
											OFFSET -0.000000 3.350399 0.000000
											CHANNELS 3 Zrotation Yrotation Xrotation
											JOINT RightHandThumb3
											{
												OFFSET -0.000000 3.756509 0.000000
												CHANNELS 3 Zrotation Yrotation Xrotation
												JOINT RightHandThumb4
												{
													OFFSET 0.000000 3.147345 0.000000
													CHANNELS 3 Zrotation Yrotation Xrotation
													End Site
													{
														OFFSET 0.000000 0.000000 0.000000
													}
												}
											}
										}
									}
									JOINT RightHandIndex1
									{
										OFFSET -0.086752 10.030893 2.345280
										CHANNELS 3 Zrotation Yrotation Xrotation
										JOINT RightHandIndex2
										{
											OFFSET 0.000000 4.061090 -0.000000
											CHANNELS 3 Zrotation Yrotation Xrotation
											JOINT RightHandIndex3
											{
												OFFSET -0.000000 3.248873 0.000000
												CHANNELS 3 Zrotation Yrotation Xrotation
												JOINT RightHandIndex4
												{
													OFFSET 0.000000 2.639709 -0.000000
													CHANNELS 3 Zrotation Yrotation Xrotation
													End Site
													{
														OFFSET 0.000000 0.000000 0.000000
													}
												}
											}
										}
									}
									JOINT RightHandMiddle1
									{
										OFFSET 0.104102 9.502952 0.006768
										CHANNELS 3 Zrotation Yrotation Xrotation
										JOINT RightHandMiddle2
										{
											OFFSET 0.000000 4.568727 0.000000
											CHANNELS 3 Zrotation Yrotation Xrotation
											JOINT RightHandMiddle3
											{
												OFFSET 0.000000 3.654981 -0.000000
												CHANNELS 3 Zrotation Yrotation Xrotation
												JOINT RightHandMiddle4
												{
													OFFSET -0.000000 2.741236 0.000000
													CHANNELS 3 Zrotation Yrotation Xrotation
													End Site
													{
														OFFSET 0.000000 0.000000 0.000000
													}
												}
											}
										}
									}
									JOINT RightHandRing1
									{
										OFFSET 0.086752 8.921708 -2.267442
										CHANNELS 3 Zrotation Yrotation Xrotation
										JOINT RightHandRing2
										{
											OFFSET -0.000000 4.061090 0.000000
											CHANNELS 3 Zrotation Yrotation Xrotation
											JOINT RightHandRing3
											{
												OFFSET -0.000000 3.654981 0.000000
												CHANNELS 3 Zrotation Yrotation Xrotation
												JOINT RightHandRing4
												{
													OFFSET -0.000000 2.741236 0.000000
													CHANNELS 3 Zrotation Yrotation Xrotation
													End Site
													{
														OFFSET 0.000000 0.000000 0.000000
													}
												}
											}
										}
									}
									JOINT RightHandPinky1
									{
										OFFSET -0.173504 7.976997 -4.467199
										CHANNELS 3 Zrotation Yrotation Xrotation
										JOINT RightHandPinky2
										{
											OFFSET -0.000000 3.350399 0.000000
											CHANNELS 3 Zrotation Yrotation Xrotation
											JOINT RightHandPinky3
											{
												OFFSET -0.000000 2.842763 0.000000
												CHANNELS 3 Zrotation Yrotation Xrotation
												JOINT RightHandPinky4
												{
													OFFSET 0.000000 2.639709 -0.000000
													CHANNELS 3 Zrotation Yrotation Xrotation
													End Site
													{
														OFFSET 0.000000 0.000000 0.000000
													}
												}
											}
										}
									}
									JOINT RightForeArmEnd
									{
										OFFSET 0.000000 0.000000 0.000000
										CHANNELS 3 Zrotation Yrotation Xrotation
										End Site
										{
											OFFSET 0.000000 0.000000 0.000000
										}
									}
								}
								JOINT RightArmEnd
								{
									OFFSET 0.000000 0.000000 0.000000
									CHANNELS 3 Zrotation Yrotation Xrotation
									End Site
									{
										OFFSET 0.000000 0.000000 0.000000
									}
								}
							}
						}
					}
					JOINT LeftShoulder
					{
						OFFSET 2.625389 11.175210 0.000000
						CHANNELS 3 Zrotation Yrotation Xrotation
						JOINT LeftArm
						{
							OFFSET -0.000000 10.813635 -0.000000
							CHANNELS 3 Zrotation Yrotation Xrotation
							JOINT LeftForeArm
							{
								OFFSET 0.000000 28.724781 0.000000
								CHANNELS 3 Zrotation Yrotation Xrotation
								JOINT LeftHand
								{
									OFFSET 0.644384 25.716167 -0.328871
									CHANNELS 3 Zrotation Yrotation Xrotation
									JOINT LeftHandThumb1
									{
										OFFSET 2.867323 3.959563 2.944291
										CHANNELS 3 Zrotation Yrotation Xrotation
										JOINT LeftHandThumb2
										{
											OFFSET 0.000000 3.350399 -0.000000
											CHANNELS 3 Zrotation Yrotation Xrotation
											JOINT LeftHandThumb3
											{
												OFFSET 0.000000 3.756509 0.000000
												CHANNELS 3 Zrotation Yrotation Xrotation
												JOINT LeftHandThumb4
												{
													OFFSET -0.000000 3.100000 0.000000
													CHANNELS 3 Zrotation Yrotation Xrotation
													End Site
													{
														OFFSET 0.000000 0.000000 0.000000
													}
												}
											}
										}
									}
									JOINT LeftHandIndex1
									{
										OFFSET 0.086752 10.030893 2.345280
										CHANNELS 3 Zrotation Yrotation Xrotation
										JOINT LeftHandIndex2
										{
											OFFSET -0.000000 4.061090 0.000000
											CHANNELS 3 Zrotation Yrotation Xrotation
											JOINT LeftHandIndex3
											{
												OFFSET 0.000000 3.248873 0.000000
												CHANNELS 3 Zrotation Yrotation Xrotation
												JOINT LeftHandIndex4
												{
													OFFSET -0.000000 2.639709 -0.000000
													CHANNELS 3 Zrotation Yrotation Xrotation
													End Site
													{
														OFFSET 0.000000 0.000000 0.000000
													}
												}
											}
										}
									}
									JOINT LeftHandMiddle1
									{
										OFFSET -0.104102 9.502952 0.006768
										CHANNELS 3 Zrotation Yrotation Xrotation
										JOINT LeftHandMiddle2
										{
											OFFSET -0.000000 4.568727 -0.000000
											CHANNELS 3 Zrotation Yrotation Xrotation
											JOINT LeftHandMiddle3
											{
												OFFSET 0.000000 3.654981 0.000000
												CHANNELS 3 Zrotation Yrotation Xrotation
												JOINT LeftHandMiddle4
												{
													OFFSET 0.000000 2.741236 0.000000
													CHANNELS 3 Zrotation Yrotation Xrotation
													End Site
													{
														OFFSET 0.000000 0.000000 0.000000
													}
												}
											}
										}
									}
									JOINT LeftHandRing1
									{
										OFFSET -0.086752 8.921708 -2.267442
										CHANNELS 3 Zrotation Yrotation Xrotation
										JOINT LeftHandRing2
										{
											OFFSET 0.000000 4.061090 0.000000
											CHANNELS 3 Zrotation Yrotation Xrotation
											JOINT LeftHandRing3
											{
												OFFSET 0.000000 3.654981 0.000000
												CHANNELS 3 Zrotation Yrotation Xrotation
												JOINT LeftHandRing4
												{
													OFFSET -0.000000 2.741236 0.000000
													CHANNELS 3 Zrotation Yrotation Xrotation
													End Site
													{
														OFFSET 0.000000 0.000000 0.000000
													}
												}
											}
										}
									}
									JOINT LeftHandPinky1
									{
										OFFSET 0.173504 7.976997 -4.467199
										CHANNELS 3 Zrotation Yrotation Xrotation
										JOINT LeftHandPinky2
										{
											OFFSET -0.000000 3.350399 -0.000000
											CHANNELS 3 Zrotation Yrotation Xrotation
											JOINT LeftHandPinky3
											{
												OFFSET -0.000000 2.842763 0.000000
												CHANNELS 3 Zrotation Yrotation Xrotation
												JOINT LeftHandPinky4
												{
													OFFSET 0.000000 2.639709 0.000000
													CHANNELS 3 Zrotation Yrotation Xrotation
													End Site
													{
														OFFSET 0.000000 0.000000 0.000000
													}
												}
											}
										}
									}
									JOINT LeftForeArmEnd
									{
										OFFSET 0.000000 0.000000 0.000000
										CHANNELS 3 Zrotation Yrotation Xrotation
										End Site
										{
											OFFSET 0.000000 0.000000 0.000000
										}
									}
								}
								JOINT LeftArmEnd
								{
									OFFSET 0.000000 0.000000 0.000000
									CHANNELS 3 Zrotation Yrotation Xrotation
									End Site
									{
										OFFSET 0.000000 0.000000 0.000000
									}
								}
							}
						}
					}
				}
			}
		}
	}
	JOINT RightUpLeg
	{
		OFFSET -11.289943 -0.000000 -0.000000
		CHANNELS 3 Zrotation Yrotation Xrotation
		JOINT RightLeg
		{
			OFFSET 0.000000 -38.200325 0.000000
			CHANNELS 3 Zrotation Yrotation Xrotation
			JOINT RightFoot
			{
				OFFSET 0.000000 -39.900856 -0.000000
				CHANNELS 3 Zrotation Yrotation Xrotation
				JOINT RightToeBase
				{
					OFFSET 0.000000 0.000000 15.261641
					CHANNELS 3 Zrotation Yrotation Xrotation
					JOINT RightToeBaseEnd
					{
						OFFSET -0.000000 -0.000000 7.370709
						CHANNELS 3 Zrotation Yrotation Xrotation
						End Site
						{
							OFFSET 0.000000 0.000000 0.000000
						}
					}
				}
				JOINT RightLegEnd
				{
					OFFSET 0.000000 0.000000 0.000000
					CHANNELS 3 Zrotation Yrotation Xrotation
					End Site
					{
						OFFSET 0.000000 0.000000 0.000000
					}
				}
			}
			JOINT RightUpLegEnd
			{
				OFFSET 0.000000 0.000000 0.000000
				CHANNELS 3 Zrotation Yrotation Xrotation
				End Site
				{
					OFFSET 0.000000 0.000000 0.000000
				}
			}
		}
	}
	JOINT LeftUpLeg
	{
		OFFSET 11.315661 -0.000000 0.000000
		CHANNELS 3 Zrotation Yrotation Xrotation
		JOINT LeftLeg
		{
			OFFSET -0.000000 -38.200325 -0.000000
			CHANNELS 3 Zrotation Yrotation Xrotation
			JOINT LeftFoot
			{
				OFFSET 0.000000 -39.900856 -0.000000
				CHANNELS 3 Zrotation Yrotation Xrotation
				JOINT LeftToeBase
				{
					OFFSET 0.000000 0.000000 15.261641
					CHANNELS 3 Zrotation Yrotation Xrotation
					JOINT LeftToeBaseEnd
					{
						OFFSET 0.000000 -0.000000 7.539996
						CHANNELS 3 Zrotation Yrotation Xrotation
						End Site
						{
							OFFSET 0.000000 0.000000 0.000000
						}
					}
				}
				JOINT LeftLegEnd
				{
					OFFSET 0.000000 0.000000 0.000000
					CHANNELS 3 Zrotation Yrotation Xrotation
					End Site
					{
						OFFSET 0.000000 0.000000 0.000000
					}
				}
			}
			JOINT LeftUpLegEnd
			{
				OFFSET 0.000000 0.000000 0.000000
				CHANNELS 3 Zrotation Yrotation Xrotation
				End Site
				{
					OFFSET 0.000000 0.000000 0.000000
				}
			}
		}
	}
}
MOTION
Frames: 4
Frame Time: 0.016667
-0.148888 88.448799 3.733362 -1.071294 -0.165774 -8.795275 1.977979 -0.454280 7.201230 -1.571631 0.301330 1.174068 -0.240323 -1.599208 1.542572 -0.148160 -0.486667 0.007339 2.983474 2.070139 7.902873 0.724172 3.669763 -1.586659 -0.964287 -0.706352 -15.315372 0.000000 0.000000 0.000000 95.648170 -1.072138 10.953419 54.864632 -56.995480 11.180590 -0.098399 6.046414 28.930777 11.922408 10.375718 -3.733858 10.937046 -1.865515 39.738762 0.000000 0.000000 -26.639997 0.000000 0.000000 -18.499998 0.000000 0.000000 0.000000 14.917025 -0.000000 -4.046403 10.441919 0.000000 0.000000 10.441919 0.000000 0.000000 0.000000 0.000000 0.000000 13.016307 0.000000 -6.907734 9.111417 0.000000 0.000000 9.111417 0.000000 0.000000 0.000000 0.000000 0.000000 12.065241 0.000000 -8.902472 8.445668 0.000000 0.000000 8.445668 0.000000 0.000000 0.000000 0.000000 0.000000 10.481709 -0.000000 -12.391636 7.337195 0.000000 0.000000 7.337195 0.000000 0.000000 0.000000 0.000000 0.000000 0.000000 0.000000 0.000000 0.000000 0.000000 0.000000 -93.027763 0.366341 6.512349 -63.928600 41.960018 -1.341277 -0.560537 -1.312608 43.460899 -8.089611 -4.192083 -9.728065 -12.135554 1.950835 39.216904 0.000000 0.000000 -29.519997 0.000000 0.000000 -20.499998 0.000000 0.000000 0.000000 -21.031582 -0.000000 -5.234027 -14.722108 0.000000 0.000000 -14.722108 0.000000 0.000000 0.000000 0.000000 0.000000 -18.543806 0.000000 -7.204970 -12.980664 0.000000 0.000000 -12.980664 0.000000 0.000000 0.000000 0.000000 0.000000 -16.284643 0.000000 -9.077846 -11.399253 0.000000 0.000000 -11.399253 0.000000 0.000000 0.000000 0.000000 0.000000 -12.854185 -0.000000 -11.003169 -8.997928 0.000000 0.000000 -8.997928 0.000000 0.000000 0.000000 0.000000 0.000000 0.000000 0.000000 0.000000 0.000000 0.000000 0.000000 -6.742904 -12.334049 11.218077 -0.100748 -1.572749 3.630219 4.062670 -8.851838 22.145350 -1.149408 2.248072 -19.515566 0.000000 0.000000 0.000000 0.000000 0.000000 0.000000 0.000000 0.000000 0.000000 7.149309 -3.984354 4.916173 0.269636 1.266636 11.990840 -4.307302 12.293428 17.657980 1.482724 -1.272024 -21.386477 0.000000 0.000000 0.000000 0.000000 0.000000 0.000000 0.000000 0.000000 0.000000 
-0.081008 88.430557 3.464770 -1.312139 -0.484247 -9.483832 2.109547 -0.295315 6.349205 -0.729445 0.166296 3.574921 0.106541 -0.947273 0.394316 -1.383630 -0.099521 2.790700 3.603777 0.941423 5.538076 1.083139 2.645112 -2.375828 -0.737742 -1.397769 -17.448551 0.000000 0.000000 0.000000 93.065964 -0.605011 11.042721 58.338959 -51.794502 10.363859 -0.533197 7.523423 30.451887 13.331704 7.680611 -1.447951 10.980028 -1.865953 39.773624 -0.000000 0.000032 -26.668583 0.000008 0.000044 -18.455963 0.000012 0.000001 -0.000034 14.883571 -0.015180 -3.922320 10.316078 -0.020697 0.020727 10.397394 -0.002752 0.005287 -0.000026 0.000026 -0.000031 12.949209 -0.005651 -6.018860 9.202686 -0.012472 0.007428 9.291747 0.002453 0.009398 0.000027 0.000042 0.000013 12.226859 -0.030699 -7.185483 8.561781 0.033335 -0.065936 8.498913 0.016186 -0.044231 0.000004 -0.000321 0.000003 11.557596 0.034732 -9.836446 7.910129 0.110039 -0.222517 7.719867 0.052258 -0.204876 -0.000239 -0.000002 0.000008 0.000000 0.000000 0.000000 0.000000 0.000000 0.000000 -91.587173 0.354699 7.471279 -62.426170 40.215900 1.991566 0.448432 -2.297056 43.941849 -7.825517 -3.560348 -9.624666 -12.032760 1.911125 39.282265 0.000003 0.000032 -29.096430 -0.000041 -0.000028 -20.350473 -0.000801 -0.000006 0.001336 -19.985285 0.035575 -4.748282 -13.532097 0.061702 0.403261 -13.812058 0.085119 0.358292 0.000016 0.000693 0.000009 -18.051443 0.019606 -6.257912 -12.468492 0.014060 0.159545 -12.242048 0.023739 0.129042 0.000778 -0.000049 -0.000052 -15.712774 0.029457 -8.059823 -10.849337 -0.008449 -0.200636 -10.801238 -0.023634 -0.149707 -0.000893 0.000003 0.000010 -12.018294 0.068328 -9.622405 -8.742168 -0.032562 -0.376567 -8.981754 -0.076646 -0.328316 -0.000169 -0.000007 -0.000037 0.000000 0.000000 0.000000 0.000000 0.000000 0.000000 -7.833289 -11.779113 11.817577 -0.227328 -1.179055 5.793509 4.300516 -9.444537 20.586740 -1.135831 1.652676 -17.662636 0.000000 0.000000 0.000000 0.000000 0.000000 0.000000 0.000000 0.000000 0.000000 8.535043 -0.638505 6.582409 0.228496 0.862108 13.607115 -4.640024 9.215808 18.170553 0.794366 -0.848940 -20.963179 0.000000 0.000000 0.000000 0.000000 0.000000 0.000000 0.000000 0.000000 0.000000 
-0.021802 88.403748 3.411071 -1.075496 -0.445531 -9.487267 1.923278 -0.263633 6.448280 -0.849689 0.193653 3.588305 0.176973 -1.034967 0.518370 -1.420830 -0.116022 2.818703 3.450273 0.947445 5.137103 1.106798 2.614289 -2.440965 -0.723638 -1.367420 -17.376944 0.000000 0.000000 0.000000 92.854561 -0.551495 11.181406 59.063122 -51.261620 9.919536 -0.532864 7.895321 30.772696 12.950876 7.201283 -1.643249 10.934363 -1.869177 39.787369 -0.000004 0.000043 -26.592903 0.000014 0.000037 -18.402073 0.000016 0.000004 -0.000044 14.923006 -0.008781 -3.862940 10.334706 -0.015179 -0.006548 10.422268 0.003379 -0.016430 -0.000010 0.000036 -0.000025 12.996938 -0.003125 -5.926439 9.237004 -0.010202 -0.004559 9.311792 0.004926 0.002832 0.000025 0.000025 0.000004 12.240085 -0.033684 -7.112069 8.591072 0.028544 -0.053731 8.527121 0.011784 -0.032464 -0.000008 -0.000176 -0.000006 11.597783 0.024520 -9.755235 7.948036 0.097257 -0.164443 7.754341 0.038787 -0.157550 -0.000203 0.000005 0.000005 0.000000 0.000000 0.000000 0.000000 0.000000 0.000000 -91.223015 0.311374 7.476817 -63.060551 39.128281 1.687452 0.440396 -2.383131 44.074753 -7.312730 -3.926659 -10.106562 -12.002907 1.916631 39.280056 0.000010 0.000037 -29.035191 -0.000059 -0.000018 -20.312004 -0.000574 0.000002 0.001341 -19.957563 0.041853 -4.771457 -13.465113 0.056187 0.362849 -13.765087 0.079635 0.322162 0.000026 0.000549 0.000009 -18.109983 0.021383 -6.319410 -12.420259 0.012098 0.143127 -12.193520 0.022890 0.116456 0.000958 -0.000049 -0.000087 -15.911392 0.030316 -8.107394 -10.893668 -0.005470 -0.183501 -10.853947 -0.022282 -0.138207 -0.000931 0.000012 0.000010 -12.331004 0.068633 -9.662323 -8.829189 -0.025388 -0.325083 -9.042040 -0.072422 -0.290683 -0.000179 0.000005 -0.000056 0.000000 0.000000 0.000000 0.000000 0.000000 0.000000 -8.242824 -11.875562 11.604189 -0.228276 -1.181410 6.019683 4.559248 -9.184486 20.425358 -1.178734 1.656337 -17.634069 0.000000 0.000000 0.000000 0.000000 0.000000 0.000000 0.000000 0.000000 0.000000 8.279572 -0.441071 6.765701 0.224910 0.833068 13.324756 -4.579338 9.137078 18.157928 0.783035 -0.854436 -20.912348 0.000000 0.000000 0.000000 0.000000 0.000000 0.000000 0.000000 0.000000 0.000000 
0.013335 88.392097 3.380055 -0.898106 -0.447299 -9.481552 1.768340 -0.232215 6.532224 -0.930252 0.209241 3.546852 0.176540 -1.061892 0.671992 -1.456967 -0.113407 2.864002 3.175061 1.036681 4.807178 1.129097 2.596944 -2.518659 -0.714486 -1.360965 -17.357498 0.000000 0.000000 0.000000 92.711823 -0.499186 11.225712 59.563652 -50.689190 9.639044 -0.524758 8.293881 31.272778 12.667117 6.810341 -1.577923 10.919865 -1.868343 39.795616 -0.000003 0.000040 -26.594564 0.000012 0.000038 -18.389433 0.000016 0.000004 -0.000043 15.033165 -0.007137 -3.862353 10.477962 -0.008318 -0.038361 10.557787 0.010909 -0.042772 -0.000010 0.000034 -0.000025 13.096748 -0.004066 -5.866438 9.392611 -0.007236 -0.016869 9.450239 0.007807 -0.005562 0.000023 0.000023 0.000005 12.238818 -0.034137 -7.028929 8.697247 0.023428 -0.045580 8.635818 0.007640 -0.023494 -0.000007 -0.000001 -0.000006 11.491611 0.019085 -9.614715 8.024988 0.084706 -0.127805 7.835996 0.027121 -0.128202 -0.000161 0.000005 -0.000001 0.000000 0.000000 0.000000 0.000000 0.000000 0.000000 -90.925964 0.294403 7.427072 -63.458374 38.370644 1.406839 0.425925 -2.612075 44.271854 -7.100055 -3.994684 -10.391325 -11.946750 1.914069 39.294819 0.000009 0.000036 -28.937122 -0.000070 -0.000018 -20.244961 -0.000518 0.000002 0.001308 -19.795336 0.041942 -4.665411 -13.431008 0.050942 0.318680 -13.741315 0.074095 0.283588 0.000024 0.000431 0.000010 -18.014086 0.020068 -6.267595 -12.406438 0.009983 0.125034 -12.189132 0.021650 0.102632 0.001051 -0.000049 -0.000102 -15.936397 0.033511 -8.052884 -10.970079 -0.002680 -0.165915 -10.938259 -0.020652 -0.125246 -0.000862 0.000013 0.000009 -12.479265 0.070968 -9.597116 -8.947473 -0.018668 -0.273852 -9.152862 -0.068059 -0.249955 -0.000207 0.000004 -0.000056 0.000000 0.000000 0.000000 0.000000 0.000000 0.000000 -8.555364 -11.908878 11.518847 -0.226795 -1.178752 6.078667 4.719929 -8.979661 20.363632 -1.206437 1.653640 -17.641054 0.000000 0.000000 0.000000 0.000000 0.000000 0.000000 0.000000 0.000000 0.000000 8.082822 -0.254211 6.903446 0.221577 0.816099 13.138115 -4.528159 9.119884 18.152800 0.778309 -0.854663 -20.912193 0.000000 0.000000 0.000000 0.000000 0.000000 0.000000 0.000000 0.000000 0.000000 
